<?xml version="1.0" encoding="UTF-8" standalone="no"?>
<!-- Generator: Adobe Illustrator 15.0.0, SVG Export Plug-In . SVG Version: 6.00 Build 0)  -->

<svg
   xmlns:dc="http://purl.org/dc/elements/1.1/"
   xmlns:cc="http://creativecommons.org/ns#"
   xmlns:rdf="http://www.w3.org/1999/02/22-rdf-syntax-ns#"
   xmlns:svg="http://www.w3.org/2000/svg"
   xmlns="http://www.w3.org/2000/svg"
   xmlns:sodipodi="http://sodipodi.sourceforge.net/DTD/sodipodi-0.dtd"
   xmlns:inkscape="http://www.inkscape.org/namespaces/inkscape"
   version="1.1"
   id="Ebene_1"
   x="0px"
   y="0px"
   width="214.328px"
   height="223px"
   viewBox="0 0 214.328 223"
   enable-background="new 0 0 214.328 223"
   xml:space="preserve"
   inkscape:version="0.48.2 r9819"
   sodipodi:docname="bg.svg"><metadata
   id="metadata3057"><rdf:RDF><cc:Work
       rdf:about=""><dc:format>image/svg+xml</dc:format><dc:type
         rdf:resource="http://purl.org/dc/dcmitype/StillImage" /><dc:title></dc:title></cc:Work></rdf:RDF></metadata><defs
   id="defs3055" /><sodipodi:namedview
   pagecolor="#ffffff"
   bordercolor="#666666"
   borderopacity="1"
   objecttolerance="10"
   gridtolerance="10"
   guidetolerance="10"
   inkscape:pageopacity="0"
   inkscape:pageshadow="2"
   inkscape:window-width="733"
   inkscape:window-height="480"
   id="namedview3053"
   showgrid="false"
   inkscape:zoom="1.058296"
   inkscape:cx="164.85611"
   inkscape:cy="111.54189"
   inkscape:window-x="539"
   inkscape:window-y="212"
   inkscape:window-maximized="0"
   inkscape:current-layer="g3045" />
<g
   id="g3045">
	<path
   fill-rule="evenodd"
   clip-rule="evenodd"
   d="M214,211c0,6.627-5.373,12-12,12H12c-6.627,0-12-5.373-12-12V12   C0,5.373,5.373,0,12,0h190c6.627,0,12,5.373,12,12V211z"
   id="path3047" />
	
	<path
   clip-rule="evenodd"
   d="M192,8c29.043,12.997,21,57.839,21,99c0,26.15,3.571,67.966-1,83   c-2.73,8.979-12.806,20.569-22,24c-17.096,6.379-58.805,2-81,2c-11.633,0-27.717,0-41,0c-30.295,0-49.436,0.811-59-22   c-6.926-16.518-3-57.862-3-85c0-15.219,0-28.69,0-41C6,33.601,6.01,10.838,38,6 M118,82c-6.918-0.371-17.169,0.539-21,0   c0,9.334,0,18.666,0,28c5.57-0.096,15.571-0.811,22,1c0,12.982,0,28.454,0,43c0,14.553-1.26,29.044,1,38   c6.466-0.587,24.654-2.347,34,0c0.666-27.001-1.332-56.666,1-82c8.542,0.141,19.648,0.022,24-1c-0.593-8.74,1.232-19.899-1-27   c-7.675-0.658-17.989,1.322-24-1c-2.429-17.428,7.916-22.084,25-20c0-9,0-18,0-27C136.021,28.861,114.666,45.578,118,82z"
   id="path3051"
   fill-rule="evenodd" />
<path
   style="fill:#ffffff;fill-opacity:1;stroke:none"
   inkscape:connector-curvature="0"
   d="m 192.75733,113.00227 c -8.4293,-1.53115 -17.20252,-2.53927 -24.32637,-2.81215 l -1.25631,-0.0455 c 0.28775,-0.68218 0.50533,-1.14457 0.57551,-1.21279 0.15441,-0.13643 0.28074,-0.71251 0.29478,-1.27342 0,-0.31077 0.12634,-1.3189 0.32286,-2.65296 1.93011,0.0757 4.49189,0.13644 7.28527,0.15917 10.78754,0.0909 22.07341,1.03087 29.81489,2.50895 4.61121,0.87927 6.13423,0.84895 2.73023,-0.0455 -3.44613,-0.902 -13.66516,-2.22848 -21.80671,-2.80456 -5.46746,-0.40174 -13.3072,-0.55333 -17.92542,-0.46995 0.13335,-0.86411 0.28776,-1.82676 0.44919,-2.81215 0.65272,-3.81269 0.8703,-7.648119 0.88434,-15.281091 0.014,-11.839818 -0.57553,-15.099174 -4.14797,-22.929217 -1.45285,-3.198723 -3.0952,-5.912328 -5.08145,-8.368219 1.73358,-5.525753 1.69147,-14.083469 -0.10533,-21.587578 -1.48092,-6.154885 -2.00029,-6.54904 -7.16596,-5.366575 -4.37959,1.008128 -7.88888,2.380092 -12.38778,4.828402 -2.12663,1.159725 -5.06038,2.963743 -7.18701,4.381186 -5.54467,-2.107214 -11.27884,-3.501917 -17.39904,-4.252328 -6.20441,-0.75799 -21.413663,-0.333516 -26.810942,0.74283 -5.277963,1.053608 -10.029532,2.342193 -14.331912,3.873334 -2.147687,-1.432603 -5.263937,-3.365479 -7.488817,-4.578265 -4.519956,-2.455889 -8.029247,-3.820274 -12.422869,-4.828401 -5.151629,-1.190045 -5.685041,-0.78831 -7.158943,5.366575 -1.824832,7.602647 -1.838869,16.304382 -0.03515,21.814972 0.210558,0.629131 0.336892,1.076352 0.386022,1.425022 -7.313351,9.944839 -9.699659,21.072146 -8.11347,36.60338 0.414096,4.047672 1.052787,7.761823 1.944147,11.165203 -4.667346,-0.0303 -11.306925,0.1516 -16.100606,0.4851 -8.155571,0.58366 -18.374612,1.89498 -21.8207305,2.797 -3.39698749,0.89442 -1.8879944,0.92474 2.7302242,0.053 7.7414813,-1.4705 19.0343583,-2.42557 29.8148893,-2.50895 2.035389,-0.008 3.937414,-0.053 5.572744,-0.0985 0.4913,1.79644 1.052787,3.5095 1.691478,5.13918 l -0.04914,0.008 c -7.12385,0.26529 -15.890048,1.27342 -24.319355,2.80456 -6.323728,1.14457 -15.6584252,3.43369 -16.7463033,4.09315 -1.1440279,0.68976 -0.2105575,0.53816 4.6884044,-0.80348 8.9346379,-2.44073 20.5503729,-4.31296 34.9384449,-5.6167 l 1.607255,-0.1516 c 3.088166,7.74666 7.846754,13.65899 14.570545,18.26757 4.112889,2.82731 10.703327,5.73041 14.023106,6.1852 0.912415,0.12128 3.565429,0.71252 5.895598,1.30375 2.337188,0.59123 6.906274,1.47808 10.148849,1.98593 h 0.07724 c -0.06314,0.0455 -0.119316,0.0757 -0.175465,0.12128 -3.930395,2.20576 -6.485159,5.63945 -8.204701,11.04393 -0.772044,0.25014 -1.73359,0.59123 -2.77234,0.97781 -3.712819,1.36439 -5.158647,1.64484 -8.920596,1.67516 -3.902332,0.0303 -4.828785,-0.1516 -7.158943,-1.33407 -3.389976,-1.70548 -6.548327,-4.84356 -8.653902,-8.58803 -3.516299,-6.261 -9.59438,-10.68768 -14.661786,-10.68768 -4.330465,0 -5.151639,1.89498 -2.021352,4.66166 4.716477,4.16136 8.239805,8.40611 9.685623,11.65031 0.814155,1.81918 2.063463,4.63133 2.786377,6.24585 0.765025,1.72063 2.400344,4.05524 3.958469,5.66977 3.6637,3.77479 7.201055,5.57881 12.479018,6.42776 3.537366,0.56091 4.407659,0.56091 8.583716,-0.0152 2.014322,-0.2653 3.712819,-0.57607 5.235851,-0.96265 0,1.8495 0,3.97945 0,6.48083 0,13.38611 -0.14739,17.6915 -0.638691,18.94976 -0.926453,2.39526 -3.003942,4.85873 -5.025294,5.96539 -2.014333,1.10667 -2.638987,2.32704 -1.789738,3.44886 0.470245,0.6064 1.375642,0.71251 4.414677,0.50027 5.769264,-0.38657 9.84706,-2.69086 11.92455,-6.75369 0.666765,-1.30375 0.821174,-3.9264 1.031731,-17.57023 0.224595,-14.80356 0.322855,-16.22858 1.214215,-18.34338 0.540431,-1.25826 1.319494,-2.62265 1.754646,-2.99406 0.729932,-0.65187 0.779062,0.63671 0.779062,18.34338 -0.0075,19.54099 -0.189501,21.89836 -2.000296,25.65798 -0.407077,0.85653 -1.179121,1.97078 -1.719552,2.50137 -0.947509,0.93233 -1.347557,3.32 -0.687821,4.0401 1.08788,1.1673 6.541308,-0.66704 9.517186,-3.19872 5.067407,-4.33571 5.671007,-7.92101 5.713117,-33.81397 l 0.0211,-15.19014 1.53707,0.15918 1.53706,0.1516 0.25266,19.86693 c 0.28777,22.36832 0.32988,22.69425 3.8532,27.0148 2.00029,2.44073 4.01462,3.78996 7.2923,4.84356 4.3866,1.42502 5.7061,-0.77315 2.75829,-4.58585 -3.20748,-4.14621 -3.36189,-5.73041 -3.18642,-30.27415 0.11931,-15.73589 0.11931,-15.73589 1.05979,-14.81872 1.97924,1.94046 2.35825,5.12402 2.35825,19.8821 0,18.32822 0.48428,20.0716 6.47814,23.27032 2.80041,1.47808 3.58648,1.65999 7.17298,1.67515 3.81809,0.0152 4.04971,-0.0455 4.19008,-1.12182 0.11931,-0.87169 -0.35093,-1.46292 -2.13365,-2.63781 -2.33718,-1.55388 -3.95847,-3.53981 -4.97616,-6.04118 -0.38603,-0.96265 -0.64571,-7.26913 -0.82118,-20.25352 -0.25267,-18.13872 -0.30882,-18.96493 -1.35457,-21.8074 -1.41074,-3.82026 -3.56544,-6.83707 -6.29566,-8.83816 -0.70888,-0.50028 -1.41776,-0.91718 -2.33719,-1.22795 1.12999,-0.12128 2.22489,-0.25014 3.2847,-0.41689 11.03319,-1.58421 16.86562,-2.90311 21.547,-4.85872 9.9032,-4.11589 16.59892,-10.95298 20.22752,-20.64767 0.32286,-0.86411 0.64571,-1.68274 0.91944,-2.34219 l 2.79338,0.25014 c 14.39509,1.31132 26.01083,3.18355 34.94546,5.63186 4.89897,1.34164 5.83243,1.50083 4.68841,0.79589 -1.06682,-0.64429 -10.40153,-2.92584 -16.71824,-4.0704 z m -42.20968,-0.23498 c -1.63532,3.88091 -6.1974,8.86849 -9.88214,10.82411 -3.63563,1.94045 -9.33471,3.41853 -15.79179,4.12347 -4.41468,0.48512 -29.035826,0.62913 -33.099575,0.19708 -13.4546,-1.42502 -20.992547,-4.22201 -26.551253,-9.82356 -5.263926,-5.3211 -7.72043,-12.54476 -7.292297,-21.435976 0.273725,-5.563659 1.516014,-9.057994 4.765618,-13.302747 2.954812,-3.865751 6.064044,-6.253423 9.727733,-7.466202 3.067121,-1.015708 12.479018,-1.106674 25.1335,-0.227404 5.593804,0.386578 10.219034,0.386578 15.805814,0 13.23703,-0.902006 22.07341,-0.803465 25.33704,0.288037 5.13058,1.713058 9.80495,6.321642 12.61237,12.461374 1.26335,2.743927 1.509,3.911234 1.69148,8.148401 0.25267,5.836517 -0.6808,12.036887 -2.4565,16.213417 z M 83.801047,87.708122 c -7.530928,-1.425021 -11.833309,12.499258 -6.057026,19.609208 2.744265,3.37306 5.179703,3.9264 8.225768,1.87982 2.821459,-1.90255 4.35151,-5.45753 4.35151,-10.066109 0,-6.147307 -2.589846,-10.664937 -6.520252,-11.422919 z M 129.513,88.54191 c -7.53093,-1.425022 -11.84033,12.48411 -6.06404,19.60164 2.75127,3.37306 5.1797,3.93397 8.23277,1.87223 2.81445,-1.89497 4.35152,-5.45753 4.35152,-10.066113 0,-6.12456 -2.58985,-10.65735 -6.52025,-11.407757 z m -20.2556,27.37862 c -0.16142,0.56091 -0.9475,1.3947 -1.7406,1.84192 -2.00731,1.11424 -3.45313,0.72768 -5.57275,-1.3568 -1.31247,-1.28101 -1.90904,-1.95562 -2.309103,-0.61398 -0.371985,1.24311 1.965193,3.7369 3.768973,4.50247 1.65639,0.71251 2.84253,0.73524 4.63927,-0.0757 1.78272,-0.80348 3.34084,-2.96374 3.34084,-4.36603 0,-1.30374 -1.73359,-1.2431 -2.12663,0.0682 z m -2.22488,-4.35844 c 1.14402,-1.09151 1.40371,-3.33516 0.30881,-4.52521 -1.09488,-1.19005 -3.31978,-1.00813 -4.19008,0.32594 -1.01068,1.56146 -0.47024,2.7515 0.25267,4.01735 1.12297,0.9399 2.63197,1.12941 3.6286,0.18192 z"
   id="path5256" /></g>
</svg>