<?xml version="1.0" encoding="UTF-8" standalone="no"?>
<!-- Generator: Adobe Illustrator 15.0.0, SVG Export Plug-In . SVG Version: 6.00 Build 0)  -->

<svg
   xmlns:dc="http://purl.org/dc/elements/1.1/"
   xmlns:cc="http://creativecommons.org/ns#"
   xmlns:rdf="http://www.w3.org/1999/02/22-rdf-syntax-ns#"
   xmlns:svg="http://www.w3.org/2000/svg"
   xmlns="http://www.w3.org/2000/svg"
   xmlns:sodipodi="http://sodipodi.sourceforge.net/DTD/sodipodi-0.dtd"
   xmlns:inkscape="http://www.inkscape.org/namespaces/inkscape"
   version="1.1"
   id="Ebene_1"
   x="0px"
   y="0px"
   width="214.328px"
   height="223px"
   viewBox="0 0 214.328 223"
   enable-background="new 0 0 214.328 223"
   xml:space="preserve"
   inkscape:version="0.48.2 r9819"
   sodipodi:docname="bg.svg"><metadata
   id="metadata3057"><rdf:RDF><cc:Work
       rdf:about=""><dc:format>image/svg+xml</dc:format><dc:type
         rdf:resource="http://purl.org/dc/dcmitype/StillImage" /><dc:title></dc:title></cc:Work></rdf:RDF></metadata><defs
   id="defs3055" /><sodipodi:namedview
   pagecolor="#ffffff"
   bordercolor="#666666"
   borderopacity="1"
   objecttolerance="10"
   gridtolerance="10"
   guidetolerance="10"
   inkscape:pageopacity="0"
   inkscape:pageshadow="2"
   inkscape:window-width="733"
   inkscape:window-height="480"
   id="namedview3053"
   showgrid="false"
   inkscape:zoom="1.058296"
   inkscape:cx="164.85611"
   inkscape:cy="76.479796"
   inkscape:window-x="175"
   inkscape:window-y="153"
   inkscape:window-maximized="0"
   inkscape:current-layer="g3045" />
<g
   id="g3045">
	<path
   clip-rule="evenodd"
   d="m 214,211.94491 c 0,6.627 -5.373,12 -12,12 H 12 c -6.627,0 -12,-5.373 -12,-12 V 12.944916 C 0,6.3179152 5.373,0.94491526 12,0.94491526 h 190 c 6.627,0 12,5.37299994 12,12.00000074 V 211.94491 z"
   id="path3047"
   inkscape:connector-curvature="0"
   style="fill-rule:evenodd" />
	
	
<path
   id="path10"
   style="fill:#ffffff;stroke:none;fill-opacity:1"
   d="m 34.625241,314.59937 0,0 0,0 0,0 z"
   inkscape:connector-curvature="0" /><path
   id="path26"
   style="fill:#ffffff;stroke:none;fill-opacity:1"
   d="m 94.587803,109.18191 c 0,-3.11276 -0.535491,-6.51076 -2.219676,-9.12096 -3.376699,-5.232039 -10.62569,-6.896167 -15.671582,-3.599208 -2.550432,1.667705 -3.968912,4.579258 -4.768525,7.568608 -1.587565,5.93578 -0.859584,12.70944 0.250629,18.67025 0.354828,1.90646 0.721317,3.8156 1.21941,5.68719 0.179912,0.67513 0.263205,1.65608 0.672174,2.21765 0.713738,0.98184 2.456311,1.2662 3.524878,1.07305 3.205948,-0.57856 2.412165,-6.24607 2.303052,-8.65597 -0.25571,-5.64516 -1.80496,-11.124 -0.30402,-16.73875 0.635526,-2.37593 1.863265,-5.04783 4.098017,-6.07975 2.017357,-0.932664 4.053038,0.20835 4.851818,2.32406 1.293457,3.42572 0.97028,7.38082 1.781554,10.94515 0.2757,1.21166 0.578887,2.41169 1.087807,3.54108 0.147429,0.32639 0.350664,1.00509 0.777957,0.96396 1.038664,-0.10194 2.515449,-1.9628 3.294156,-2.65313 2.515449,-2.23195 5.100028,-4.62218 7.996128,-6.27379 1.36268,-0.77707 3.60484,-2.03522 4.99675,-0.71358 0.35474,0.33712 0.64044,0.73951 0.89448,1.16605 1.63588,2.75149 0.0117,4.89492 -1.0519,7.51138 -1.37684,3.38638 -2.78774,6.73878 -4.78269,9.7648 -1.715,2.60215 -4.058785,4.88329 -5.429038,7.72599 -0.882073,1.83045 -1.380998,3.83617 -1.016175,5.9018 0.29569,1.67038 1.501773,2.67905 3.088503,2.28739 1.18776,-0.2933 1.99237,-1.38603 2.66954,-2.3947 1.20692,-1.79915 2.32804,-3.66627 3.52746,-5.47258 2.32055,-3.49368 5.05839,-6.76024 7.00994,-10.51593 2.3522,-4.52739 3.48665,-9.65033 3.48407,-14.80725 -0.002,-4.21442 -1.42506,-10.655432 -5.9971,-11.538913 -0.86033,-0.16543 -1.84411,-0.07511 -2.69869,0.08495 -1.06191,0.198515 -2.12806,0.569613 -3.09842,1.073948 -2.59958,1.350265 -4.84765,3.366705 -6.77922,5.659465 -1.205167,1.42895 -2.284644,3.22632 -3.714786,4.39952"
   inkscape:connector-curvature="0" /><path
   id="path28"
   style="fill:#ffffff;stroke:none;fill-opacity:1"
   d="M 90.289966,4.9311064 C 86.684211,5.439913 83.019319,5.3871545 79.396072,5.9880649 72.455348,7.1389156 65.807649,9.4540302 59.306712,12.246654 c -2.367188,1.016719 -4.702724,2.149685 -6.996614,3.34167 -0.85367,0.443529 -2.155623,0.798531 -2.841958,1.510324 -0.357243,0.371098 -0.320594,1.240272 -0.36399,1.736559 -0.120692,1.395865 -0.283113,2.789941 -0.408969,4.184912 -0.485515,5.383156 -0.827849,10.929058 -0.109863,16.309531 0.232387,1.738348 0.735477,4.891339 2.725347,5.22488 3.060103,0.514172 5.437285,-3.52856 6.939059,-5.761407 3.507469,-5.215044 7.498037,-10.069721 13.250253,-12.400931 6.771723,-2.744336 14.524637,-3.390852 21.68867,-3.918437 20.099443,-1.479026 42.063723,2.46266 56.869893,18.358171 2.10565,2.260567 4.09885,4.659738 5.79386,7.296769 6.62929,10.306686 10.1351,22.026227 11.82345,34.335948 0.79378,5.779292 1.33602,11.627438 0.10828,17.382586 -2.13064,9.984771 -7.7171,18.675611 -14.1365,26.074321 -4.3937,5.06393 -9.33798,9.6414 -14.48382,13.80216 -2.87277,2.32227 -6.09455,4.29222 -8.79574,6.83089 -3.111,2.92407 -5.69891,6.58319 -7.66546,10.48463 -5.29244,10.5052 -6.71167,23.14578 -5.155,34.87248 0.31901,2.40364 0.6072,4.81891 1.11446,7.18946 0.15159,0.70911 0.17824,1.92792 0.60554,2.50737 0.79961,1.08379 2.98189,1.68023 4.2038,1.74372 1.27438,0.0662 2.1223,-0.98543 2.43465,-2.21228 0.53474,-2.1023 0.2149,-4.43082 -0.0949,-6.54564 -0.6347,-4.33156 -1.21608,-8.69352 -1.03617,-13.09036 0.33151,-8.11855 3.25509,-15.68359 8.49589,-21.5675 5.32992,-5.98407 12.52894,-9.43483 18.586,-14.44778 12.20743,-10.10281 23.1438,-23.73328 27.34344,-39.95339 1.50094,-5.800752 1.9982,-11.947565 1.3127,-17.919112 -0.86625,-7.553408 -3.43917,-15.097874 -5.863,-22.211329 C 167.26271,43.722019 154.59051,23.101492 134.46609,13.182 126.47912,9.2456788 118.12733,7.4536782 109.47901,6.1606478 105.42348,5.5543721 101.36877,5.1823799 97.285664,4.9901244 95.017678,4.8837132 92.550539,4.6136612 90.289133,4.9328948"
   inkscape:connector-curvature="0" /><path
   id="path30"
   style="fill:#ffffff;stroke:none;fill-opacity:1"
   d="m 58.806038,145.28124 c -3.922269,0.6027 -5.06255,3.97835 -4.337901,7.7868 0.927884,4.87345 4.497823,8.59069 8.035195,11.51834 9.063113,7.50065 20.769114,11.55501 32.182757,11.01848 4.453677,-0.20924 9.305491,-0.99973 13.392681,-3.0287 2.19144,-1.08736 4.48367,-5.0049 1.49928,-6.68155 -0.40897,-0.22981 -0.94363,-0.37199 -1.39933,-0.45247 -1.30345,-0.22892 -2.76282,0.36663 -3.99798,0.74756 -2.17811,0.67156 -4.354556,1.35921 -6.596804,1.74551 -6.699258,1.15532 -13.943252,-0.48824 -19.489734,-4.75006 -4.48358,-3.44629 -8.110158,-7.99068 -11.533584,-12.58514 -2.095569,-2.81229 -3.989653,-5.89822 -7.756163,-5.31877"
   inkscape:connector-curvature="0" /><path
   id="path32"
   style="fill:#ffffff;stroke:none;fill-opacity:1"
   d="m 53.708505,169.10126 c -0.997851,0.14128 -2.142297,0.10104 -2.996883,0.77439 -1.782471,1.4048 0.180746,4.23051 1.118625,5.51102 2.719434,3.71009 6.300201,6.78975 9.873555,9.50458 9.961762,7.56593 21.2463,11.93058 33.382176,12.82389 3.489062,0.25664 7.043172,-0.01 10.494002,-0.62684 1.26181,-0.22623 2.83197,-0.32817 3.99807,-0.91299 3.29998,-1.65697 2.34545,-8.35015 -0.59971,-9.83812 -1.28605,-0.6492 -3.34921,0.20835 -4.69773,0.40955 -3.18929,0.47751 -6.38774,0.5258 -9.595354,0.44174 -8.406765,-0.22087 -17.36243,-3.00097 -24.687219,-7.38798 -2.879439,-1.72583 -5.523909,-3.82544 -7.996129,-6.16201 -1.503439,-1.4209 -3.047692,-3.74585 -4.997498,-4.46391 -0.907894,-0.33443 -2.353944,-0.20745 -3.298487,-0.0742"
   inkscape:connector-curvature="0" /><path
   id="path34"
   style="fill:#ffffff;stroke:none;fill-opacity:1"
   d="m 55.707454,189.16827 c -1.420896,0.17079 -2.492044,0.96664 -3.426592,2.09871 -0.643855,0.77975 -1.255225,1.48439 -1.625046,2.46803 -2.039014,5.41534 3.396689,10.52755 7.150705,13.085 4.177895,2.84538 8.742352,4.95483 13.392602,6.73163 10.488257,4.00785 22.789803,6.57335 33.682027,2.99024 3.2376,-1.06411 6.43772,-3.00992 8.79158,-5.63979 1.32594,-1.48171 2.23634,-3.72529 -0.19574,-4.67405 -1.44097,-0.56156 -3.19095,0.86828 -4.49782,1.43342 -3.08517,1.33596 -6.28362,2.34999 -9.595355,2.78011 -4.362056,0.56782 -8.289321,-0.4632 -12.49312,-1.59259 -3.590762,-0.96396 -7.222255,-1.92792 -10.693991,-3.31753 -2.9619,-1.18572 -5.903809,-2.59411 -8.495805,-4.56316 -0.774625,-0.58839 -1.702509,-1.1124 -2.337202,-1.87874 -2.074829,-2.50648 -3.634074,-5.43949 -5.858831,-7.82346 -0.961201,-1.03013 -2.327124,-2.27488 -3.798162,-2.09872"
   inkscape:connector-curvature="0" /></g>
</svg>