<?xml version="1.0" encoding="UTF-8" standalone="no"?>
<!-- Generator: Adobe Illustrator 15.0.0, SVG Export Plug-In . SVG Version: 6.00 Build 0)  -->

<svg
   xmlns:dc="http://purl.org/dc/elements/1.1/"
   xmlns:cc="http://creativecommons.org/ns#"
   xmlns:rdf="http://www.w3.org/1999/02/22-rdf-syntax-ns#"
   xmlns:svg="http://www.w3.org/2000/svg"
   xmlns="http://www.w3.org/2000/svg"
   xmlns:sodipodi="http://sodipodi.sourceforge.net/DTD/sodipodi-0.dtd"
   xmlns:inkscape="http://www.inkscape.org/namespaces/inkscape"
   version="1.1"
   id="Ebene_1"
   x="0px"
   y="0px"
   width="214.328px"
   height="223px"
   viewBox="0 0 214.328 223"
   enable-background="new 0 0 214.328 223"
   xml:space="preserve"
   inkscape:version="0.48.4 r9939"
   sodipodi:docname="black.svg"><metadata
   id="metadata3057"><rdf:RDF><cc:Work
       rdf:about=""><dc:format>image/svg+xml</dc:format><dc:type
         rdf:resource="http://purl.org/dc/dcmitype/StillImage" /><dc:title></dc:title></cc:Work></rdf:RDF></metadata><defs
   id="defs3055" /><sodipodi:namedview
   pagecolor="#ffffff"
   bordercolor="#666666"
   borderopacity="1"
   objecttolerance="10"
   gridtolerance="10"
   guidetolerance="10"
   inkscape:pageopacity="0"
   inkscape:pageshadow="2"
   inkscape:window-width="1366"
   inkscape:window-height="705"
   id="namedview3053"
   showgrid="false"
   inkscape:zoom="2.1165919"
   inkscape:cx="178.96455"
   inkscape:cy="121.9142"
   inkscape:window-x="-8"
   inkscape:window-y="-8"
   inkscape:window-maximized="1"
   inkscape:current-layer="g3045" />
<g
   id="g3045">
	<path
   clip-rule="evenodd"
   d="M214,211c0,6.627-5.373,12-12,12H12c-6.627,0-12-5.373-12-12V12   C0,5.373,5.373,0,12,0h190c6.627,0,12,5.373,12,12V211z"
   id="path3047"
   fill-rule="evenodd" />
	
	
<path
   style="fill:#ffffff"
   d="m 70.856877,208.78941 c -6.28741,-3.1375 -6.04305,0.49591 -5.75788,-85.61309 0.28301,-85.457419 -0.0752,-80.525682 6.06108,-83.437558 2.43407,-1.155044 7.89617,-1.417097 29.537363,-1.417097 l 26.55105,0 0,-12.719546 c 0,-11.868017 0.13845,-12.848529 2.06801,-14.646187 2.91797,-2.7185058 6.80834,-2.4804607 9.20239,0.563079 1.74934,2.223926 1.95842,3.779478 1.95842,14.571107 l 0,12.08139 2.71608,0.596552 c 3.44151,0.755883 6.51526,4.003648 7.70055,8.136526 1.25772,4.385429 1.23284,150.424544 -0.0264,154.957584 -0.51602,1.85756 -2.03569,4.40883 -3.37706,5.6695 l -2.43884,2.29211 -35.59543,0.2323 c -30.923263,0.20182 -35.989713,0.0355 -38.599333,-1.26667 z m 20.29585,-10.02113 c 1.51495,-1.51496 1.51495,-15.11556 0,-16.63051 -0.68299,-0.683 -3.98964,-1.1339 -8.31526,-1.1339 -4.32561,0 -7.63226,0.4509 -8.31525,1.1339 -1.2022,1.20219 -1.63746,16.00096 -0.50395,17.13446 1.1335,1.1335 15.93226,0.69824 17.13446,-0.50395 l 0,0 z m 25.512713,0 c 1.51495,-1.51496 1.51495,-15.11556 0,-16.63051 -0.68299,-0.683 -3.98964,-1.1339 -8.31525,-1.1339 -4.32562,0 -7.63227,0.4509 -8.31526,1.1339 -1.202203,1.20219 -1.637453,16.00096 -0.503953,17.13446 1.133503,1.1335 15.932263,0.69824 17.134463,-0.50395 l 0,0 z m 25.51271,0 c 1.51495,-1.51496 1.51495,-15.11556 0,-16.63051 -0.68299,-0.683 -3.98964,-1.1339 -8.31525,-1.1339 -4.32561,0 -7.63226,0.4509 -8.31526,1.1339 -1.20219,1.20219 -1.63745,16.00096 -0.50395,17.13446 1.1335,1.1335 15.93226,0.69824 17.13446,-0.50395 l 0,0 z M 91.152727,173.25556 c 1.6669,-1.66689 1.5103,-15.33078 -0.19189,-16.74348 -0.84084,-0.69783 -4.21083,-0.99938 -9.21293,-0.82439 l -7.88713,0.27593 -0.27592,7.88713 c -0.175,5.0021 0.12656,8.37209 0.82438,9.21292 1.4127,1.7022 15.07659,1.85879 16.74349,0.19189 z m 25.512713,0 c 1.6669,-1.66689 1.5103,-15.33078 -0.19189,-16.74348 -0.84083,-0.69783 -4.21082,-0.99938 -9.21293,-0.82439 l -7.887133,0.27593 -0.27592,7.88713 c -0.17499,5.0021 0.12656,8.37209 0.82438,9.21292 1.412703,1.7022 15.076593,1.85879 16.743493,0.19189 z m 25.51271,0 c 1.6669,-1.66689 1.5103,-15.33078 -0.19189,-16.74348 -0.84083,-0.69783 -4.21082,-0.99938 -9.21292,-0.82439 l -7.88714,0.27593 -0.27592,7.88713 c -0.17499,5.0021 0.12656,8.37209 0.82439,9.21292 1.41269,1.7022 15.07658,1.85879 16.74348,0.19189 l 0,0 z M 91.152727,147.74285 c 0.6863,-0.6863 1.1339,-4.01663 1.1339,-8.43674 0,-9.3513 -0.81669,-10.27258 -9.10631,-10.27258 -9.31921,0 -9.792,0.47152 -9.792,9.76587 0,4.81421 0.43491,8.24446 1.1339,8.94345 0.68299,0.683 3.98964,1.1339 8.31525,1.1339 4.32562,0 7.63227,-0.4509 8.31526,-1.1339 l 0,0 z m 24.818903,0.15574 c 1.56671,-0.83848 1.82564,-2.01916 1.81324,-8.268 -0.008,-4.00942 -0.4082,-7.91237 -0.88942,-8.6732 -1.12965,-1.78604 -13.12982,-2.57099 -15.98056,-1.04532 -1.805823,0.96645 -2.013863,1.88454 -2.013863,8.88733 0,4.81421 0.43491,8.24446 1.133903,8.94345 1.40146,1.40146 13.39014,1.51861 15.9367,0.15574 l 0,0 z m 25.85555,-0.50671 c 1.67752,-1.67751 2.11354,-14.01143 0.58098,-16.43449 -1.12965,-1.78604 -13.12981,-2.57099 -15.98056,-1.04532 -1.80582,0.96645 -2.01385,1.88454 -2.01385,8.88733 0,4.81421 0.4349,8.24446 1.13389,8.94345 1.75941,1.75941 14.44261,1.48597 16.27954,-0.35097 l 0,0 z m 0.56072,-25.91767 c 1.40212,-2.21995 1.20301,-70.211821 -0.20975,-71.624579 -0.83896,-0.838962 -9.78365,-1.133898 -34.38831,-1.133898 -29.452003,0 -33.319993,0.170904 -33.827963,1.494655 -0.31546,0.822061 -0.57356,17.206419 -0.57356,36.409687 l 0,34.915035 2.12606,0.87316 c 1.19062,0.48898 16.17322,0.78739 34.052183,0.67824 27.20508,-0.16611 32.0585,-0.40452 32.82134,-1.6123 z"
   id="path2990"
   inkscape:connector-curvature="0" /></g>
</svg>