<?xml version="1.0" encoding="UTF-8" standalone="no"?>
<!-- Generator: Adobe Illustrator 15.0.0, SVG Export Plug-In . SVG Version: 6.00 Build 0)  -->

<svg
   xmlns:dc="http://purl.org/dc/elements/1.1/"
   xmlns:cc="http://creativecommons.org/ns#"
   xmlns:rdf="http://www.w3.org/1999/02/22-rdf-syntax-ns#"
   xmlns:svg="http://www.w3.org/2000/svg"
   xmlns="http://www.w3.org/2000/svg"
   xmlns:sodipodi="http://sodipodi.sourceforge.net/DTD/sodipodi-0.dtd"
   xmlns:inkscape="http://www.inkscape.org/namespaces/inkscape"
   version="1.1"
   id="Ebene_1"
   x="0px"
   y="0px"
   width="214.328px"
   height="223px"
   viewBox="0 0 214.328 223"
   enable-background="new 0 0 214.328 223"
   xml:space="preserve"
   inkscape:version="0.48.4 r9939"
   sodipodi:docname="black.svg"><metadata
   id="metadata3057"><rdf:RDF><cc:Work
       rdf:about=""><dc:format>image/svg+xml</dc:format><dc:type
         rdf:resource="http://purl.org/dc/dcmitype/StillImage" /><dc:title></dc:title></cc:Work></rdf:RDF></metadata><defs
   id="defs3055" /><sodipodi:namedview
   pagecolor="#ffffff"
   bordercolor="#666666"
   borderopacity="1"
   objecttolerance="10"
   gridtolerance="10"
   guidetolerance="10"
   inkscape:pageopacity="0"
   inkscape:pageshadow="2"
   inkscape:window-width="1366"
   inkscape:window-height="705"
   id="namedview3053"
   showgrid="false"
   inkscape:zoom="2.1165919"
   inkscape:cx="257.37342"
   inkscape:cy="109.74127"
   inkscape:window-x="-8"
   inkscape:window-y="-8"
   inkscape:window-maximized="1"
   inkscape:current-layer="g3045" />
<g
   id="g3045">
	<path
   clip-rule="evenodd"
   d="M214,211c0,6.627-5.373,12-12,12H12c-6.627,0-12-5.373-12-12V12   C0,5.373,5.373,0,12,0h190c6.627,0,12,5.373,12,12V211z"
   id="path3047"
   fill-rule="evenodd" />
	
	
<g
   id="Livello_39"
   transform="matrix(1.1618883,0,0,1.2158465,26.339359,24.920482)"
   style="fill:#ffffff"><path
     inkscape:connector-curvature="0"
     d="m 134.631,72.609 c -0.616,15.764 -6.873,30.078 -16.813,40.979 -5.521,-5.15 -11.873,-9.42 -18.836,-12.583 1.959,-8.614 3.125,-18.228 3.295,-28.396 h 32.354 z m 0,-5.136 h -32.354 c -0.198,-12.014 -1.793,-23.256 -4.438,-32.988 6.312,-2.73 12.131,-6.369 17.312,-10.74 11.478,11.185 18.81,26.599 19.48,43.728 M 111.099,20.107 c -4.479,3.686 -9.457,6.781 -14.824,9.168 -3.139,-9.508 -7.348,-17.23 -12.24,-22.355 10.111,2.232 19.338,6.828 27.064,13.187 M 91.504,31.17 C 85.558,33.264 79.211,34.514 72.61,34.772 V 5.693 C 80.323,7.455 87.086,17.064 91.504,31.17 M 72.61,40.171 c 7.109,-0.255 13.947,-1.575 20.363,-3.798 2.314,9.121 3.719,19.734 3.901,31.1 H 72.61 V 40.171 z m 0,32.438 H 96.878 C 96.726,82.068 95.728,91.004 94.062,98.994 87.333,96.537 80.124,95.08 72.613,94.808 V 72.609 H 72.61 z m 0,27.6 c 7.092,0.277 13.888,1.699 20.213,4.08 -4.319,16.607 -11.686,28.152 -20.213,30.1 v -34.18 z m 11.422,32.953 c 5.642,-5.907 10.373,-15.27 13.604,-26.832 6.029,2.852 11.545,6.605 16.375,11.092 -8.272,7.68 -18.558,13.221 -29.979,15.74 m -16.559,1.227 c -8.527,-1.947 -15.894,-13.492 -20.213,-30.1 6.326,-2.381 13.122,-3.803 20.213,-4.08 v 34.18 z m 0,-39.58 C 59.96,95.08 52.751,96.538 46.024,98.997 44.358,91.007 43.361,82.068 43.207,72.609 h 24.267 l -0.001,22.2 0,0 z m 0,-27.336 H 43.206 c 0.185,-11.363 1.586,-21.975 3.903,-31.096 6.416,2.221 13.255,3.537 20.363,3.794 l 0.001,27.302 0,0 z m 0,-32.702 C 60.873,34.513 54.529,33.263 48.58,31.169 52.998,17.064 59.76,7.455 67.473,5.693 V 34.771 z M 56.053,6.92 C 51.158,12.045 46.949,19.77 43.811,29.275 38.444,26.888 33.464,23.793 28.988,20.107 36.711,13.748 45.938,9.152 56.053,6.92 M 24.93,23.748 c 5.185,4.369 11.011,8.002 17.318,10.732 -2.646,9.733 -4.239,20.977 -4.438,32.992 H 5.453 c 0.67,-17.126 8,-32.538 19.477,-43.724 M 5.453,72.609 H 37.81 c 0.169,10.168 1.335,19.781 3.294,28.396 -6.963,3.163 -13.316,7.433 -18.838,12.583 C 12.326,102.688 6.07,88.373 5.453,72.609 m 20.619,44.813 c 4.83,-4.486 10.346,-8.24 16.375,-11.092 3.232,11.562 7.962,20.925 13.604,26.832 -11.42,-2.519 -21.707,-8.06 -29.979,-15.74 m 113.96,-44.813 h 0.052 v -5.137 h -0.052 C 138.71,30.833 109.25,1.372 72.61,0.05 V 0 H 67.472 V 0.051 C 30.834,1.373 1.373,30.834 0.052,67.473 H 0 v 5.136 h 0.052 c 0.622,17.261 7.487,32.929 18.408,44.812 -0.03,0.033 -0.062,0.065 -0.093,0.101 h 0.186 c 12.258,13.285 29.59,21.813 48.92,22.512 v 0.053 h 2.565 0.004 0.004 2.564 v -0.053 c 19.332,-0.695 36.664,-9.227 48.92,-22.512 h 0.187 c -0.03,-0.033 -0.062,-0.064 -0.093,-0.101 10.921,-11.884 17.785,-27.552 18.408,-44.812"
     id="path3057"
     style="fill:#ffffff" /></g></g>
</svg>