<?xml version="1.0" encoding="utf-8"?>
<!-- Generator: Adobe Illustrator 15.0.0, SVG Export Plug-In . SVG Version: 6.00 Build 0)  -->
<!DOCTYPE svg PUBLIC "-//W3C//DTD SVG 1.1//EN" "http://www.w3.org/Graphics/SVG/1.1/DTD/svg11.dtd">
<svg version="1.1" id="Ebene_1" xmlns="http://www.w3.org/2000/svg" xmlns:xlink="http://www.w3.org/1999/xlink" x="0px" y="0px"
	 width="214.328px" height="223px" viewBox="0 0 214.328 223" enable-background="new 0 0 214.328 223" xml:space="preserve">
<g>
	<path fill-rule="evenodd" clip-rule="evenodd" d="M214,211c0,6.627-5.373,12-12,12H12c-6.627,0-12-5.373-12-12V12
		C0,5.373,5.373,0,12,0h190c6.627,0,12,5.373,12,12V211z"/>
	<path fill-rule="evenodd" clip-rule="evenodd" fill="#FFFFFF" d="M200,188c0,6.627-5.373,12-12,12h-88c-6.627,0-12-5.373-12-12V28
		c0-6.627,5.373-12,12-12h88c6.627,0,12,5.373,12,12V188z"/>
	<path fill-rule="evenodd" clip-rule="evenodd" d="M192,8c29.043,12.997,21,57.839,21,99c0,26.15,3.571,67.966-1,83
		c-2.73,8.979-12.806,20.569-22,24c-17.096,6.379-58.805,2-81,2c-11.633,0-27.717,0-41,0c-30.295,0-49.436,0.811-59-22
		c-6.926-16.518-3-57.862-3-85c0-15.219,0-28.69,0-41C6,33.601,6.01,10.838,38,6 M118,82c-6.918-0.371-17.169,0.539-21,0
		c0,9.334,0,18.666,0,28c5.57-0.096,15.571-0.811,22,1c0,12.982,0,28.454,0,43c0,14.553-1.26,29.044,1,38
		c6.466-0.587,24.654-2.347,34,0c0.666-27.001-1.332-56.666,1-82c8.542,0.141,19.648,0.022,24-1c-0.593-8.74,1.232-19.899-1-27
		c-7.675-0.658-17.989,1.322-24-1c-2.429-17.428,7.916-22.084,25-20c0-9,0-18,0-27C136.021,28.861,114.666,45.578,118,82z"/>
</g>
</svg>
