<?xml version="1.0" encoding="UTF-8" standalone="no"?>
<!-- Generator: Adobe Illustrator 15.0.0, SVG Export Plug-In . SVG Version: 6.00 Build 0)  -->

<svg
   xmlns:dc="http://purl.org/dc/elements/1.1/"
   xmlns:cc="http://creativecommons.org/ns#"
   xmlns:rdf="http://www.w3.org/1999/02/22-rdf-syntax-ns#"
   xmlns:svg="http://www.w3.org/2000/svg"
   xmlns="http://www.w3.org/2000/svg"
   xmlns:sodipodi="http://sodipodi.sourceforge.net/DTD/sodipodi-0.dtd"
   xmlns:inkscape="http://www.inkscape.org/namespaces/inkscape"
   version="1.1"
   id="Ebene_1"
   x="0px"
   y="0px"
   width="214.328px"
   height="223px"
   viewBox="0 0 214.328 223"
   enable-background="new 0 0 214.328 223"
   xml:space="preserve"
   inkscape:version="0.48.2 r9819"
   sodipodi:docname="google-plus.svg"><metadata
   id="metadata3057"><rdf:RDF><cc:Work
       rdf:about=""><dc:format>image/svg+xml</dc:format><dc:type
         rdf:resource="http://purl.org/dc/dcmitype/StillImage" /><dc:title /></cc:Work></rdf:RDF></metadata><defs
   id="defs3055" /><sodipodi:namedview
   pagecolor="#ffffff"
   bordercolor="#666666"
   borderopacity="1"
   objecttolerance="10"
   gridtolerance="10"
   guidetolerance="10"
   inkscape:pageopacity="0"
   inkscape:pageshadow="2"
   inkscape:window-width="733"
   inkscape:window-height="480"
   id="namedview3053"
   showgrid="false"
   inkscape:zoom="1.058296"
   inkscape:cx="164.85612"
   inkscape:cy="111.54189"
   inkscape:window-x="68"
   inkscape:window-y="150"
   inkscape:window-maximized="0"
   inkscape:current-layer="g3045" />
<g
   id="g3045">
	<path
   clip-rule="evenodd"
   d="m 214.94492,211.94492 c 0,6.627 -5.373,12 -12,12 H 12.944912 c -6.6269996,0 -11.99999963,-5.373 -11.99999963,-12 V 12.944915 c 0,-6.6269999 5.37300003,-11.99999986 11.99999963,-11.99999986 H 202.94492 c 6.627,0 12,5.37299996 12,11.99999986 V 211.94492 z"
   id="path3047"
   inkscape:connector-curvature="0"
   style="fill-rule:evenodd" />
	
	
<rect
   style="fill:#ffffff;fill-opacity:1;fill-rule:nonzero;stroke:#ffffff;stroke-width:0;stroke-linecap:butt;stroke-linejoin:miter;stroke-miterlimit:4;stroke-opacity:1;stroke-dasharray:none"
   id="rect3004"
   width="193.70763"
   height="196.54237"
   x="9.4491501"
   y="17.008474" /><path
   style="fill:#000000"
   d="m 0.10892629,14.534784 c 0,0 -0.1324329,171.708346 0.1648545,185.736276 -0.109371,10.47958 7.66562831,18.56449 17.65872921,18.56449 7.222173,0.0217 171.22152,0.0735 178.06842,-0.10833 6.80807,-0.006 19.30183,-7.62098 19.29182,-17.38362 0.18933,-7.95604 -0.0745,-186.711983 -0.0745,-186.711983 -73.74577,0.05298 -148.916763,-0.09235 -215.10932201,-0.09676 z M 151.75035,51.532548 l 7.80406,0 0,26.174026 24.15868,0 0,8.575539 -24.15868,0 0,26.919757 -7.80406,0 0,-26.919757 -24.15867,0 0,-8.575539 24.15867,0 z m -29.72331,0.22371 -4.7503,3.020069 c -3.14456,2.009331 -6.32938,3.020082 -9.56847,3.020082 l -4.88602,0 4.3092,5.331748 c 6.98212,8.716233 8.42241,19.691884 3.90203,29.678824 -0.93414,2.063821 -4.5818,6.750918 -8.10943,10.402509 -9.082492,9.40169 -8.952481,11.78501 1.3233,21.28972 9.01875,8.34202 12.65952,13.52693 14.01338,19.94745 2.77011,13.13682 -6.0158,27.86493 -20.222708,33.85474 -7.224843,3.04609 -26.01231,4.36915 -33.319967,2.34895 -15.473244,-4.27759 -23.69032,-17.41611 -19.170857,-30.61095 1.554223,-4.53766 8.213547,-12.01024 13.334773,-14.91399 4.773808,-2.70675 16.656683,-5.71121 22.665721,-5.74187 l 4.071687,0 -2.307289,-4.84705 c -1.739294,-3.66678 -2.093889,-5.95623 -1.560813,-9.61952 0.647398,-4.44876 0.510144,-4.7745 -1.526883,-4.06406 -3.612085,1.25976 -13.670996,-1.64579 -18.254727,-5.29446 C 56.412564,101.13495 51.950017,91.441016 52.061896,84.082301 52.244319,72.0838 58.301012,62.187145 68.959395,56.416865 l 7.396897,-3.989478 22.835377,-0.335565 z m -42.141953,6.11472 c -0.304008,-0.0036 -0.614738,0.05595 -0.916129,0.07457 -4.822299,0.297004 -9.248559,3.385522 -11.434653,9.134814 -3.877983,10.198802 1.222494,29.751831 9.330948,35.756279 10.084286,7.46759 22.903236,-0.6388 22.903236,-14.46657 0,-6.014797 -3.717178,-18.05483 -7.023659,-22.818392 -3.503865,-5.047929 -8.299541,-7.591706 -12.859743,-7.643415 z m 5.089608,76.285032 c -7.079001,0.32914 -16.295128,3.08394 -20.120917,6.07744 -4.165748,3.25951 -6.345045,8.18175 -6.345045,14.28014 0,8.64717 5.700709,15.65025 15.472409,18.94077 5.907083,1.98912 21.544302,0.89668 25.719487,-1.78968 5.068821,-3.26137 7.808941,-7.7584 8.414811,-13.83272 0.64048,-6.42119 -1.92152,-11.04317 -10.281002,-18.53063 -5.144006,-4.60741 -6.358649,-5.14532 -11.468583,-5.14532 -0.450676,0 -0.919224,-0.0219 -1.39116,0 z"
   id="path3031"
   inkscape:connector-curvature="0"
   sodipodi:nodetypes="ccccccccccccccccccccccccsssssssscccsssscccccccssscccccsssssccc" /></g>
</svg>