<?xml version="1.0" encoding="UTF-8" standalone="no"?>
<!-- Generator: Adobe Illustrator 15.0.0, SVG Export Plug-In . SVG Version: 6.00 Build 0)  -->

<svg
   xmlns:dc="http://purl.org/dc/elements/1.1/"
   xmlns:cc="http://creativecommons.org/ns#"
   xmlns:rdf="http://www.w3.org/1999/02/22-rdf-syntax-ns#"
   xmlns:svg="http://www.w3.org/2000/svg"
   xmlns="http://www.w3.org/2000/svg"
   xmlns:sodipodi="http://sodipodi.sourceforge.net/DTD/sodipodi-0.dtd"
   xmlns:inkscape="http://www.inkscape.org/namespaces/inkscape"
   version="1.1"
   id="Ebene_1"
   x="0px"
   y="0px"
   width="214.328px"
   height="223px"
   viewBox="0 0 214.328 223"
   enable-background="new 0 0 214.328 223"
   xml:space="preserve"
   inkscape:version="0.48.2 r9819"
   sodipodi:docname="bg.svg"><metadata
   id="metadata3057"><rdf:RDF><cc:Work
       rdf:about=""><dc:format>image/svg+xml</dc:format><dc:type
         rdf:resource="http://purl.org/dc/dcmitype/StillImage" /><dc:title></dc:title></cc:Work></rdf:RDF></metadata><defs
   id="defs3055" /><sodipodi:namedview
   pagecolor="#ffffff"
   bordercolor="#666666"
   borderopacity="1"
   objecttolerance="10"
   gridtolerance="10"
   guidetolerance="10"
   inkscape:pageopacity="0"
   inkscape:pageshadow="2"
   inkscape:window-width="733"
   inkscape:window-height="480"
   id="namedview3053"
   showgrid="false"
   inkscape:zoom="1.058296"
   inkscape:cx="164.8561"
   inkscape:cy="111.54189"
   inkscape:window-x="68"
   inkscape:window-y="150"
   inkscape:window-maximized="0"
   inkscape:current-layer="g3045" />
<g
   id="g3045">
	<path
   fill-rule="evenodd"
   clip-rule="evenodd"
   d="M214,211c0,6.627-5.373,12-12,12H12c-6.627,0-12-5.373-12-12V12   C0,5.373,5.373,0,12,0h190c6.627,0,12,5.373,12,12V211z"
   id="path3047" />
	
	<path
   clip-rule="evenodd"
   d="M192,8c29.043,12.997,21,57.839,21,99c0,26.15,3.571,67.966-1,83   c-2.73,8.979-12.806,20.569-22,24c-17.096,6.379-58.805,2-81,2c-11.633,0-27.717,0-41,0c-30.295,0-49.436,0.811-59-22   c-6.926-16.518-3-57.862-3-85c0-15.219,0-28.69,0-41C6,33.601,6.01,10.838,38,6 M118,82c-6.918-0.371-17.169,0.539-21,0   c0,9.334,0,18.666,0,28c5.57-0.096,15.571-0.811,22,1c0,12.982,0,28.454,0,43c0,14.553-1.26,29.044,1,38   c6.466-0.587,24.654-2.347,34,0c0.666-27.001-1.332-56.666,1-82c8.542,0.141,19.648,0.022,24-1c-0.593-8.74,1.232-19.899-1-27   c-7.675-0.658-17.989,1.322-24-1c-2.429-17.428,7.916-22.084,25-20c0-9,0-18,0-27C136.021,28.861,114.666,45.578,118,82z"
   id="path3051"
   fill-rule="evenodd" />
<rect
   style="fill:#ffffff;fill-opacity:1;fill-rule:nonzero;stroke:#ffffff;stroke-width:0;stroke-linecap:butt;stroke-linejoin:miter;stroke-miterlimit:4;stroke-opacity:1;stroke-dasharray:none"
   id="rect4635"
   width="196.5424"
   height="205.99152"
   x="8.5042391"
   y="6.6144052" /><path
   d="M 193.66003,1.8601683 H 16.111143 c -8.9097305,0 -16.14081046,7.524152 -16.14081046,16.7949817 v 184.74478 c 0,9.27083 7.23107996,16.79498 16.14081046,16.79498 H 193.66003 c 8.90973,0 16.1408,-7.52415 16.1408,-16.79498 V 18.65515 c 0,-9.2708297 -7.23107,-16.7949817 -16.1408,-16.7949817 z M 64.283383,200.51119 H 32.001763 V 82.946348 h 32.28162 V 200.51119 z M 48.142573,70.350108 c -11.16137,0 -20.17601,-9.39679 -20.17601,-20.993724 0,-11.596943 9.01464,-20.993735 20.17601,-20.993735 11.16137,0 20.17602,9.396792 20.17602,20.993735 0,11.596934 -9.01465,20.993724 -20.17602,20.993724 z M 177.26904,200.51119 h -32.28162 v -71.37866 c 0,-3.359 -3.25237,-8.85935 -5.54436,-10.18616 -3.0264,-1.77187 -10.17679,-1.92303 -13.43724,-0.28551 l -13.30003,6.65921 v 75.19112 H 80.424193 V 82.946348 h 32.281597 v 5.15606 c 12.77546,-6.07139 30.50614,-5.47517 42.53103,1.54512 12.76739,7.44017 22.03222,24.050412 22.03222,39.485002 v 71.37866 z"
   id="path4562"
   inkscape:connector-curvature="0"
   style="fill:#000000;fill-opacity:1;stroke:none" /></g>
</svg>